<svg xmlns="http://www.w3.org/2000/svg" xmlns:xlink="http://www.w3.org/1999/xlink" version="1.1" width="256" height="256" viewBox="0 0 256 256" xml:space="preserve">

<defs>
</defs>
<g style="stroke: none; stroke-width: 0; stroke-dasharray: none; stroke-linecap: butt; stroke-linejoin: miter; stroke-miterlimit: 10; fill: none; fill-rule: nonzero; opacity: 1;" transform="translate(1.4065934065934016 1.4065934065934016) scale(2.81 2.81)" >
	<path d="M 87.148 71.197 H 2.851 C 1.279 71.197 0 69.918 0 68.346 V 21.654 c 0 -1.572 1.279 -2.851 2.851 -2.851 h 84.297 c 1.572 0 2.852 1.279 2.852 2.851 v 46.691 C 90 69.918 88.721 71.197 87.148 71.197 z M 2.851 20.803 C 2.382 20.803 2 21.185 2 21.654 v 46.691 c 0 0.47 0.382 0.852 0.851 0.852 h 84.297 c 0.47 0 0.852 -0.382 0.852 -0.852 V 21.654 c 0 -0.469 -0.382 -0.851 -0.852 -0.851 H 2.851 z" style="stroke: none; stroke-width: 1; stroke-dasharray: none; stroke-linecap: butt; stroke-linejoin: miter; stroke-miterlimit: 10; fill: rgb(14,147,71); fill-rule: nonzero; opacity: 1;" transform=" matrix(1 0 0 1 0 0) " stroke-linecap="round" />
	<path d="M 73.297 63.908 H 16.716 c -0.552 0 -1 -0.447 -1 -1 c 0 -4.096 -3.332 -7.428 -7.427 -7.428 c -0.552 0 -1 -0.447 -1 -1 V 35.52 c 0 -0.552 0.448 -1 1 -1 c 4.095 0 7.427 -3.332 7.427 -7.427 c 0 -0.552 0.448 -1 1 -1 h 56.581 c 0.541 0 0.983 0.43 1 0.971 c 0.119 4.04 3.376 7.205 7.414 7.205 c 0.553 0 1 0.448 1 1 v 18.961 c 0 0.553 -0.447 1 -1 1 c -4.096 0 -7.428 3.332 -7.428 7.428 l 0.013 0.218 c 0.01 0.271 -0.092 0.534 -0.28 0.729 C 73.827 63.798 73.568 63.908 73.297 63.908 z M 17.664 61.908 h 54.649 c 0.356 -4.52 3.913 -8.152 8.398 -8.627 V 36.216 c -4.336 -0.45 -7.771 -3.795 -8.336 -8.124 H 17.664 c -0.466 4.401 -3.973 7.909 -8.375 8.375 v 17.066 C 13.69 53.999 17.198 57.507 17.664 61.908 z" style="stroke: none; stroke-width: 1; stroke-dasharray: none; stroke-linecap: butt; stroke-linejoin: miter; stroke-miterlimit: 10; fill: rgb(14,147,71); fill-rule: nonzero; opacity: 1;" transform=" matrix(1 0 0 1 0 0) " stroke-linecap="round" />
	<path d="M 45 58.5 c -7.444 0 -13.5 -6.056 -13.5 -13.5 c 0 -7.444 6.056 -13.5 13.5 -13.5 c 7.444 0 13.5 6.056 13.5 13.5 C 58.5 52.444 52.444 58.5 45 58.5 z M 45 33.5 c -6.341 0 -11.5 5.159 -11.5 11.5 c 0 6.341 5.159 11.5 11.5 11.5 c 6.341 0 11.5 -5.159 11.5 -11.5 C 56.5 38.659 51.341 33.5 45 33.5 z" style="stroke: none; stroke-width: 1; stroke-dasharray: none; stroke-linecap: butt; stroke-linejoin: miter; stroke-miterlimit: 10; fill: rgb(14,147,71); fill-rule: nonzero; opacity: 1;" transform=" matrix(1 0 0 1 0 0) " stroke-linecap="round" />
	<circle cx="22.82" cy="45" r="2" style="stroke: none; stroke-width: 1; stroke-dasharray: none; stroke-linecap: butt; stroke-linejoin: miter; stroke-miterlimit: 10; fill: rgb(14,147,71); fill-rule: nonzero; opacity: 1;" transform="  matrix(1 0 0 1 0 0) "/>
	<circle cx="67.18" cy="45" r="2" style="stroke: none; stroke-width: 1; stroke-dasharray: none; stroke-linecap: butt; stroke-linejoin: miter; stroke-miterlimit: 10; fill: rgb(14,147,71); fill-rule: nonzero; opacity: 1;" transform="  matrix(1 0 0 1 0 0) "/>
	<path d="M 44.881 52.259 c -2.037 0 -3.829 -1.064 -4.567 -2.711 c -0.226 -0.505 0 -1.096 0.504 -1.322 c 0.503 -0.223 1.095 -0.001 1.321 0.504 c 0.41 0.915 1.511 1.529 2.742 1.529 s 2.332 -0.614 2.741 -1.528 c 0.241 -0.59 0.148 -0.917 0.057 -1.108 c -0.288 -0.604 -1.286 -1.163 -2.964 -1.664 c -1.574 -0.469 -3.473 -1.202 -4.198 -2.717 c -0.396 -0.828 -0.388 -1.755 0.023 -2.759 c 0.75 -1.676 2.542 -2.741 4.58 -2.741 s 3.83 1.064 4.567 2.711 c 0.226 0.504 -0.001 1.096 -0.505 1.321 c -0.508 0.228 -1.096 -0.001 -1.321 -0.504 c -0.409 -0.915 -1.511 -1.529 -2.741 -1.529 s -2.333 0.614 -2.742 1.529 c -0.27 0.661 -0.109 0.997 -0.057 1.107 c 0.289 0.604 1.286 1.163 2.965 1.664 c 1.574 0.469 3.473 1.202 4.198 2.717 c 0.396 0.828 0.388 1.756 -0.022 2.759 C 48.711 51.194 46.918 52.259 44.881 52.259 z" style="stroke: none; stroke-width: 1; stroke-dasharray: none; stroke-linecap: butt; stroke-linejoin: miter; stroke-miterlimit: 10; fill: rgb(14,147,71); fill-rule: nonzero; opacity: 1;" transform=" matrix(1 0 0 1 0 0) " stroke-linecap="round" />
	<path d="M 44.881 54.04 c -0.552 0 -1 -0.447 -1 -1 v -1.781 c 0 -0.553 0.448 -1 1 -1 s 1 0.447 1 1 v 1.781 C 45.881 53.593 45.433 54.04 44.881 54.04 z" style="stroke: none; stroke-width: 1; stroke-dasharray: none; stroke-linecap: butt; stroke-linejoin: miter; stroke-miterlimit: 10; fill: rgb(14,147,71); fill-rule: nonzero; opacity: 1;" transform=" matrix(1 0 0 1 0 0) " stroke-linecap="round" />
	<path d="M 44.881 39.742 c -0.552 0 -1 -0.448 -1 -1 v -1.782 c 0 -0.552 0.448 -1 1 -1 s 1 0.448 1 1 v 1.782 C 45.881 39.294 45.433 39.742 44.881 39.742 z" style="stroke: none; stroke-width: 1; stroke-dasharray: none; stroke-linecap: butt; stroke-linejoin: miter; stroke-miterlimit: 10; fill: rgb(14,147,71); fill-rule: nonzero; opacity: 1;" transform=" matrix(1 0 0 1 0 0) " stroke-linecap="round" />
</g>
</svg>